<svg id="图层_1" data-name="图层 1" xmlns="http://www.w3.org/2000/svg" viewBox="0 0 419.74 129.72" width="85" height="28"><defs><style>.cls-1{fill:#003e8d;}.cls-2{fill:#f29329;}</style></defs><title>zfb</title><path class="cls-1" d="M459.42,364.47c2.1,0,3.15,1,3.15,2.81l-1.4,11.58H391.7V366.58Zm22.45,1.4c-.35-6-3.86-9.12-10.17-9.12L437,358.15V347.63H425c-7.37,0-10.53,1.4-10.53,3.86v7.37l-22.8,1.05V355.7c-14-1.05-20.7.35-20.7,3.86v27h43.5v18.94H384.68v7H414.5v35.79L437,446.22V412.54h32.28v-7.37l-32.28.35V386.58H474.5v-3.51h.71c2.1-.35,3.51-1.76,4.91-4.92l1.75-12.28Zm-120,6.67H349.94V347.63H338c-7-.35-10.52,1.05-10.17,3.51v21.4H285.73v7.37h41.76v71.58h22.1V379.91h12.28Z" transform="translate(-96.59 -347.57)"/><path class="cls-1" d="M281.87,347.63c-7-.35-10.17,1.05-10.17,3.51,0,10.52-10.18,22.8-30.18,36.49l3.16,4.56,15.09-7,.35,61.05,22.1,2.81V370.79c6.32-7.37,9.48-15.09,9.83-23.16Z" transform="translate(-96.59 -347.57)"/><path class="cls-2" d="M449.59,430.08l6,6.67,6.31,5.61c1.41,1.41,2.81,1.41,3.86,0l6.67-5.61,5.61-6.67a2.32,2.32,0,0,0,0-3.5l-6-6.67-6.32-5.62c-1.05-1.4-2.45-1.4-3.86,0l-6.31,5.62-6,6.67c-1.4,1.4-1.4,2.45,0,3.5m-124.91-27-7.37-8.78-8.77-7.71a3.38,3.38,0,0,0-4.91,0l-8.77,7.71-7.72,8.78c-1.76,1.75-1.76,3.15,0,4.91l16.49,16.14a3.4,3.4,0,0,0,4.91,0l8.77-7.72,7.37-8.42c1.75-1.76,1.75-3.16,0-4.91" transform="translate(-96.59 -347.57)"/><path class="cls-2" d="M475.56,471.4l8.77-1.4,5.61-5.61c3.16-4.57,8.07-9.83,15.79-16.14,8.07-7,11.23-8.78,8.42-6,1.41-1.4,2.46-2.81,2.11-4.21,0-1.05-1-1.75-2.46-1.4l-5.26.7c-35.79,7.37-80.35,12.28-134.39,14.74-61,2.45-106.31-.36-136.49-8.78-9.47-2.8-18.24-5.26-26.66-7.72-6.67-2.45-13-4.21-18.95-6.31-3.16-1.05-6.32-2.11-9.12-3.16-20-8.77-36.14-13-47.72-12.63q-16.32,0-27.37,7.37c-7.72,5.26-11.58,12.28-11.23,21.05-.35,9.82,3.86,17.54,11.93,22.81,5.61,3.86,12.63,6.31,20.7,7.37h1.4a38.87,38.87,0,0,1-16.84-6c-6.66-4.56-10.17-10.53-10.17-18.25,0-15.08,8.42-22.8,26.31-24.21h2.46l17.19,1.41a105.26,105.26,0,0,1,15.09,5.61c2.11.7,8.07,3.86,17.89,8.77,4.22,2.11,8.78,4.57,14,7a11.45,11.45,0,0,0,2.11,1.05,275.47,275.47,0,0,0,40.7,16.5q73.16,22.09,236.14,7.36" transform="translate(-96.59 -347.57)"/><path class="cls-1" d="M174.15,351.84v13.33H129.94v7H173.8V389l-31.23.35v7.37l66.32-.35A85.42,85.42,0,0,1,192.05,429c6,2.11,11.93,4.21,18.59,6.32C222.57,421,229.94,405.87,231.7,389H195.91V372.54h45.61v-7H195.91V348.68l-11.58-.35c-7-.35-10.18,1.05-10.18,3.51m-38.24,120h3.51c21.05-1.4,39.65-8.42,55.44-21,1.4-1.41,3.15-2.81,4.56-4.21-.7-.36-1.41-.36-2.11-1.06-5.26-2.45-10.17-4.91-14-7l-1.41,1.4a96.25,96.25,0,0,1-23.51,16.14c-8.07,3.86-15.08,5.61-20.7,6-18.59,0-28.07-7-28.07-20.7,0-9.47,7-15.44,21-18.59-17.89,1.4-26.31,9.12-26.31,24.21,0,7.72,3.51,13.68,10.17,18.24a35.76,35.76,0,0,0,16.85,6h-2.46a24,24,0,0,0,7,.7" transform="translate(-96.59 -347.57)"/></svg>