<svg id="图层_1" data-name="图层 1" xmlns="http://www.w3.org/2000/svg" viewBox="0 0 424.73 94.64" width="112" height="28"><defs><style>.cls-1{fill:#22ac38;}.cls-2{fill:#222;}</style></defs><title>wczf</title><path class="cls-1" d="M133.07,488.74a3.51,3.51,0,0,1-1.61.39,3.58,3.58,0,0,1-3.12-1.83l-.23-.52-9.77-21.42a1.91,1.91,0,0,1-.17-.75,1.8,1.8,0,0,1,2.86-1.44l11.52,8.21a5.34,5.34,0,0,0,2.93.87,5.26,5.26,0,0,0,1.83-.33l54.19-24.11c-9.72-11.45-25.71-18.93-43.81-18.93-29.62,0-53.63,20-53.63,44.69,0,13.47,7.22,25.59,18.53,33.78a3.57,3.57,0,0,1,1.5,2.91,4.07,4.07,0,0,1-.19,1.15c-.9,3.36-2.35,8.76-2.41,9a4.88,4.88,0,0,0-.29,1.31,1.79,1.79,0,0,0,1.79,1.78,2,2,0,0,0,1-.33l11.74-6.78a5.61,5.61,0,0,1,2.85-.82,5.1,5.1,0,0,1,1.57.24,63.69,63.69,0,0,0,17.51,2.44c29.62,0,53.63-20,53.63-44.69a38.67,38.67,0,0,0-6.11-20.71l-61.75,35.65Z" transform="translate(-94.06 -428.88)"/><rect class="cls-2" x="236.37" y="31.78" width="40.23" height="3.61"/><rect class="cls-2" x="236.37" y="43.05" width="40.23" height="3.89"/><path class="cls-2" d="M331.45,505.25h38.2V483.48h-38.2Zm3.89-18.17h30.42v14.56H335.34Z" transform="translate(-94.06 -428.88)"/><path class="cls-2" d="M306.45,473.17l2.15,3.69c2.26-3.35,4.65-7.29,6.9-11.42v42.08h3.89v-50.1a124.49,124.49,0,0,0,5.95-15.58l-3.6-2.08A114.19,114.19,0,0,1,306.45,473.17Z" transform="translate(-94.06 -428.88)"/><path class="cls-2" d="M452.63,473.17l2.14,3.69c2.27-3.35,4.65-7.29,6.91-11.42v42.08h3.88v-50.1a124.49,124.49,0,0,0,5.95-15.58l-3.6-2.08A114.43,114.43,0,0,1,452.63,473.17Z" transform="translate(-94.06 -428.88)"/><path class="cls-2" d="M353.76,447.66l.09-.05,0-.09c-.29-.67-1-2.25-1.84-3.92s-1.51-3.17-1.88-4l0-.12-3.58,2.07.05.1c1.28,2.41,2.39,4.62,3.37,6.76a3.29,3.29,0,0,1,.26.69H326.49V453h48.4v-3.89H351.26Z" transform="translate(-94.06 -428.88)"/><polygon class="cls-2" points="177.02 17.27 173.41 17.27 173.41 29.96 166.6 29.96 166.6 11.92 162.99 11.92 162.99 29.96 155.89 29.96 155.89 17.27 152.28 17.27 152.28 33.56 177.02 33.56 177.02 17.27"/><rect class="cls-2" x="153.41" y="40.66" width="21.92" height="3.61"/><path class="cls-2" d="M274.2,492.22l-1.74-3-.07-.12-5.54,4.75v-13.6H248.31v5.48c.53,7.5-1.34,12.86-5.56,15.93l-.08.06,2,3.49.07.11.1-.09c5.25-4.32,7.73-10.42,7.35-18.1v-3.27h11v8c-.13,2.81-.27,3.67-1.24,5l0,.06,2.22,3.84.1-.09c1.94-1.55,5.26-4.4,9.85-8.44Z" transform="translate(-94.06 -428.88)"/><path class="cls-2" d="M244.63,442l-3.37-1.94a61.67,61.67,0,0,1-12.74,17.79l2.18,3.77A73.71,73.71,0,0,0,244.63,442Z" transform="translate(-94.06 -428.88)"/><path class="cls-2" d="M244.26,460.51l-3.49-2-.05.12a75.77,75.77,0,0,1-13.13,21.83l-.06.06,2,3.47.09.14.1-.12c2.13-2.49,4.21-5.11,6.2-7.81v31.33h3.61V470.24a96.37,96.37,0,0,0,4.69-9.64Z" transform="translate(-94.06 -428.88)"/><path class="cls-2" d="M281.53,453.19A76.68,76.68,0,0,0,285.05,440h-3.77c-2.34,11-5.92,20.5-10.52,28l2.28,3.95,1.67-3.34c.63-1.1,1.14-2,1.52-2.78,1.13,9.73,3.1,17.56,5.86,23.28A59.68,59.68,0,0,1,270,503.22l-.07.06,2.08,3.6.08.13.1-.1c5.71-5.35,9.66-10,11.75-13.93A71.54,71.54,0,0,0,295,507.11l.11.11,2.13-3.7.05-.07-.06-.06c-5-4.8-9-9.78-11.22-14,4.09-7.48,6.64-18.43,7.58-32.57h4v-3.61ZM290,456.8c-.74,11.76-2.69,21.2-5.78,28.05-2.38-6.13-4.14-14.46-5.25-24.77a24.59,24.59,0,0,1,1.37-3.28Z" transform="translate(-94.06 -428.88)"/><path class="cls-2" d="M417.28,439.38h-3.93v9.76H382.88V453h30.47V465.8H393.59v3.51a68.88,68.88,0,0,0,9.17,14.26,65.43,65.43,0,0,0,9.12,9.16,80.36,80.36,0,0,1-27.62,10.64l2.27,3.94A95,95,0,0,0,415,495.09a74.54,74.54,0,0,0,27,12.12h.11l1.6-3a111.83,111.83,0,0,1-10.64-3.58,77.83,77.83,0,0,1-15.36-7.92A57.34,57.34,0,0,0,437,467.64l-3.2-1.84H417.28V453H448v-3.84H417.28Zm15.16,29.79s-4,11.35-17.54,21a59.55,59.55,0,0,1-17.41-21Z" transform="translate(-94.06 -428.88)"/><path class="cls-2" d="M508.34,456.73V440.06h-3.9v16.67H472.35v3.88h32.09v36.15c0,3.92-2.44,5.76-7,5.76h-2.26v3.89h3.4c3.81,0,5.9-.81,7.53-2.45s2.34-4,2.25-7.19V460.61h10.45v-3.88Z" transform="translate(-94.06 -428.88)"/><path class="cls-2" d="M480.79,472.8c2.37,4.63,5,10.28,7.92,16.86l3.86-2.26c-2.06-4.21-4.83-9.79-8.26-16.66Z" transform="translate(-94.06 -428.88)"/></svg>